<svg width="1498" height="895" viewBox="0 0 1498 895" fill="none" xmlns="http://www.w3.org/2000/svg"><path d="M1473.29 620.19H846.55l-.02 62.13-22.01-.03v-16.85l-75.62.17h-.24l-75.62-.17v16.85l-22.01.03-.02-62.13H24.25v246.08l-7.79 7.46v18.42h636.83l.03-37.37h39.63V747.4c0-28.58 24.17-51.64 55.7-51.94h.24c31.53.3 55.7 23.36 55.7 51.94v107.39h39.59l.03 37.37h636.87v-18.42l-7.79-7.46V620.19ZM190.26 830.38h-75.3l.37-79.79c0-20.51 16.78-37.29 37.29-37.29 20.51 0 37.65 16.78 37.65 37.29v79.79h-.01Zm-37.65-134.92c-32.21 0-43.49 29.56-43.49 29.56 0-30.21 25.89-50.45 43.49-50.45 17.92 0 43.49 20.24 43.49 50.45 0 0-11.29-29.56-43.49-29.56Zm232.97 134.92h-75.3l.37-79.79c0-20.51 16.77-37.29 37.28-37.29s37.66 16.78 37.66 37.29v79.79h-.01Zm-37.65-134.92c-32.2 0-43.49 29.56-43.49 29.56 0-30.21 25.9-50.45 43.49-50.45 17.93 0 43.5 20.24 43.5 50.45-.01 0-11.3-29.56-43.5-29.56Zm230.8 134.92h-75.3l.37-79.79c0-20.51 16.78-37.29 37.28-37.29 20.51 0 37.66 16.78 37.66 37.29v79.79h-.01Zm-37.66-134.92c-32.2 0-43.49 29.56-43.49 29.56 0-30.21 25.9-50.45 43.49-50.45 17.93 0 43.49 20.24 43.49 50.45 0 0-11.28-29.56-43.49-29.56Zm377.74 134.92v-79.79c0-20.51 17.15-37.29 37.66-37.29 20.5 0 37.28 16.78 37.28 37.29l.37 79.79h-75.31Zm37.66-134.92c-32.21 0-43.49 29.56-43.49 29.56 0-30.21 25.56-50.45 43.49-50.45 17.59 0 43.49 20.24 43.49 50.45-.01 0-11.29-29.56-43.49-29.56Zm155.48 134.92v-79.79c0-20.51 17.15-37.29 37.66-37.29 20.51 0 37.28 16.78 37.28 37.29l.37 79.79h-75.31Zm37.66-134.92c-32.21 0-43.5 29.56-43.5 29.56 0-30.21 25.57-50.45 43.5-50.45 17.59 0 43.49 20.24 43.49 50.45 0 0-11.29-29.56-43.49-29.56Zm157.67 134.92v-79.79c0-20.51 17.14-37.29 37.65-37.29 20.51 0 37.29 16.78 37.29 37.29l.37 79.79h-75.31Zm37.65-134.92c-32.2 0-43.49 29.56-43.49 29.56 0-30.21 25.57-50.45 43.49-50.45 17.6 0 43.49 20.24 43.49 50.45 0 0-11.29-29.56-43.49-29.56Z" fill="#174C97"/><path d="M825.05 607.38h-14.61c2.35 13.69 2.35 26.11 0 39.79h14.61v-15.6c-.06-2.3-.06-4.56 0-6.86v-17.33ZM775.65 607.38c2.33 13.69 2.33 26.11 0 39.79h16.07c-2.34-13.69-2.34-26.1 0-39.79h-16.07ZM740.61 607.37c2.33 13.69 2.33 26.11 0 39.79h16.31c-2.33-13.68-2.33-26.1 0-39.79h-16.31ZM748.89 205.24c-.04 0-.08 0-.12.01-.04-.01-.08-.01-.12-.01-15.15.24-27.35 12.58-27.35 27.78 0 15.2 12.2 27.54 27.35 27.78.04 0 .08 0 .12-.01.04.01.08.01.12.01 15.15-.24 27.35-12.58 27.35-27.78 0-15.2-12.2-27.54-27.35-27.78ZM827.52 871.56h-157.5v20.6h157.5v-20.6ZM24.12 332.82v244.03l-7.58 8.13v18.49h634.51v-14.71H846.5v14.71H1481v-18.49l-7.58-8.13V332.82H24.12Zm507.32 18.29h19.26v19.26h-19.26v-19.26Zm-193.14 0h19.25v19.26H338.3v-19.26Zm-195.62 0h19.26v19.26h-19.26v-19.26Zm57.17 201.42h-92.86v-71.18c0-25.65 20.79-46.43 46.43-46.43s46.43 20.79 46.43 46.43v71.18Zm-46.7-135.63c-37.52 0-50.48 31.12-50.48 31.12 0-35.28 38.53-53.32 49.94-53.32 11.42 0 49.34 18.55 49.34 54.03 0-.01-11.29-31.83-48.8-31.83Zm240.91 135.63h-92.88v-71.18c0-25.65 20.8-46.43 46.44-46.43 25.65 0 46.43 20.79 46.43 46.43v71.18h.01Zm-45.6-135.63c-37.51 0-50.47 31.12-50.47 31.12 0-35.28 38.52-53.32 49.94-53.32 11.41 0 49.34 18.55 49.34 54.03-.01-.01-11.31-31.83-48.81-31.83ZM587.2 552.53h-92.87v-71.18c0-25.65 20.79-46.43 46.43-46.43 25.65 0 46.43 20.79 46.43 46.43v71.18h.01ZM541.61 416.9c-37.52 0-50.48 31.12-50.48 31.12 0-35.28 38.53-53.32 49.94-53.32 11.42 0 49.34 18.55 49.34 54.03 0-.01-11.3-31.83-48.8-31.83Zm197.85-65.79h18.61v19.26h-18.61v-19.26Zm55.94 223.37h-93.27v-93.13c0-25.65 20.79-46.43 46.44-46.43h.38c25.66 0 46.44 20.79 46.44 46.43v93.13h.01Zm-46.51-157.56h-.24c-36.92.42-49.72 31.1-49.72 31.1 0-35.07 38.05-53.07 49.72-53.3l.24-1c11.67.23 49.72 19.23 49.72 54.31 0-.02-12.81-30.69-49.72-31.11Zm586.7-65.81h19.27v19.26h-19.27v-19.26Zm-195.61 0h19.25v19.26h-19.25v-19.26Zm-193.15 0h19.26v19.26h-19.26v-19.26Zm56.37 201.42h-92.87v-71.18c0-25.65 20.79-46.43 46.43-46.43 25.65 0 46.43 20.79 46.43 46.43v71.18h.01ZM955.93 416.9c-37.5 0-48.8 31.83-48.8 31.83 0-35.47 37.92-54.03 49.34-54.03 11.41 0 49.94 18.03 49.94 53.32 0-.01-12.97-31.12-50.48-31.12Zm240.42 135.63h-92.88v-71.18c0-25.65 20.79-46.43 46.43-46.43 25.65 0 46.44 20.79 46.44 46.43v71.18h.01Zm-47.27-135.63c-37.51 0-48.81 31.83-48.81 31.83 0-35.47 37.93-54.03 49.34-54.03 11.42 0 49.94 18.03 49.94 53.32 0-.01-12.96-31.12-50.47-31.12Zm241.47 135.63h-92.86v-71.18c0-25.65 20.8-46.43 46.43-46.43 25.65 0 46.43 20.79 46.43 46.43v71.18Zm-46.16-135.63c-37.51 0-48.8 31.83-48.8 31.83 0-35.47 37.92-54.03 49.34-54.03 11.41 0 49.94 18.03 49.94 53.32 0-.01-12.97-31.12-50.48-31.12ZM672.49 607.38v17.34c.06 2.3.06 4.56 0 6.86v15.6h14.61c-2.34-13.69-2.34-26.1 0-39.79h-14.61v-.01ZM705.82 607.38c2.34 13.69 2.34 26.11 0 39.79h16.07c-2.33-13.69-2.33-26.1 0-39.79h-16.07Z" fill="#174C97"/><path d="M1139.98 111.73h-119.75v16.35h-75.34v-16.35H754.43V56.3h89.41l-25.9-29.58L843.84.38H743.13v111.35H552.64v16.35H477.3v-16.35H358.27L.36 294v18.45h1496.82V294l-357.2-182.27ZM848.79 292.87l-72.6.01v.01h-54.84v-.01l-72.6-.01v-21.83s36.21-6.74 47.46-35.85c-11.64-9.65-8.75-32.85 8.39-32.91 2.39-.01 3.76-.02 4.5-.03 2.7-11.53 11.54-15.13 20.19-17.27l-10.2-26.88 7.37-9.66h44.62l7.37 9.66-10.2 26.88c8.65 2.14 17.48 5.74 20.19 17.27.74.01 2.1.02 4.5.03 17.13.06 20.03 23.26 8.38 32.91 11.25 29.11 47.46 35.85 47.46 35.85v21.83h.01Z" fill="#174C97"/><path d="M536.38 56.87H493.5v54.94h42.88V56.87ZM1004.04 56.87h-42.88v54.94h42.88V56.87Z" fill="#174C97"/></svg>
