<svg width="1498" height="1229" fill="none" xmlns="http://www.w3.org/2000/svg"><path d="M1473.29 620.19H846.55l-.02 62.13-22.01-.03v-16.85l-75.62.17h-.24l-75.62-.17v16.85l-22.01.03-.02-62.13H24.25v246.08l-7.79 7.46v18.42h636.83l.03-37.37h39.63V747.4c0-28.58 24.17-51.64 55.7-51.94h.24c31.53.3 55.7 23.36 55.7 51.94v107.39h39.59l.03 37.37h636.87v-18.42l-7.79-7.46V620.19ZM190.26 830.38h-75.3l.37-79.79c0-20.51 16.78-37.29 37.29-37.29 20.51 0 37.65 16.78 37.65 37.29v79.79h-.01Zm-37.65-134.92c-32.21 0-43.49 29.56-43.49 29.56 0-30.21 25.89-50.45 43.49-50.45 17.92 0 43.49 20.24 43.49 50.45 0 0-11.29-29.56-43.49-29.56Zm232.97 134.92h-75.3l.37-79.79c0-20.51 16.77-37.29 37.28-37.29s37.66 16.78 37.66 37.29v79.79h-.01Zm-37.65-134.92c-32.2 0-43.49 29.56-43.49 29.56 0-30.21 25.9-50.45 43.49-50.45 17.93 0 43.5 20.24 43.5 50.45-.01 0-11.3-29.56-43.5-29.56Zm230.8 134.92h-75.3l.37-79.79c0-20.51 16.78-37.29 37.28-37.29 20.51 0 37.66 16.78 37.66 37.29v79.79h-.01Zm-37.66-134.92c-32.2 0-43.49 29.56-43.49 29.56 0-30.21 25.9-50.45 43.49-50.45 17.93 0 43.49 20.24 43.49 50.45 0 0-11.28-29.56-43.49-29.56Zm377.74 134.92v-79.79c0-20.51 17.15-37.29 37.66-37.29 20.5 0 37.28 16.78 37.28 37.29l.37 79.79h-75.31Zm37.66-134.92c-32.21 0-43.49 29.56-43.49 29.56 0-30.21 25.56-50.45 43.49-50.45 17.59 0 43.49 20.24 43.49 50.45-.01 0-11.29-29.56-43.49-29.56Zm155.48 134.92v-79.79c0-20.51 17.15-37.29 37.66-37.29 20.51 0 37.28 16.78 37.28 37.29l.37 79.79h-75.31Zm37.66-134.92c-32.21 0-43.5 29.56-43.5 29.56 0-30.21 25.57-50.45 43.5-50.45 17.59 0 43.49 20.24 43.49 50.45 0 0-11.29-29.56-43.49-29.56Zm157.67 134.92v-79.79c0-20.51 17.14-37.29 37.65-37.29 20.51 0 37.29 16.78 37.29 37.29l.37 79.79h-75.31Zm37.65-134.92c-32.2 0-43.49 29.56-43.49 29.56 0-30.21 25.57-50.45 43.49-50.45 17.6 0 43.49 20.24 43.49 50.45 0 0-11.29-29.56-43.49-29.56Z" fill="#174C97"/><path d="M825.05 607.38h-14.61c2.35 13.69 2.35 26.11 0 39.79h14.61v-15.6c-.06-2.3-.06-4.56 0-6.86v-17.33ZM775.65 607.38c2.33 13.69 2.33 26.11 0 39.79h16.07c-2.34-13.69-2.34-26.1 0-39.79h-16.07ZM740.61 607.37c2.33 13.69 2.33 26.11 0 39.79h16.31c-2.33-13.68-2.33-26.1 0-39.79h-16.31ZM748.89 205.24c-.04 0-.08 0-.12.01-.04-.01-.08-.01-.12-.01-15.15.24-27.35 12.58-27.35 27.78 0 15.2 12.2 27.54 27.35 27.78.04 0 .08 0 .12-.01.04.01.08.01.12.01 15.15-.24 27.35-12.58 27.35-27.78 0-15.2-12.2-27.54-27.35-27.78ZM827.52 871.56h-157.5v20.6h157.5v-20.6ZM24.12 332.82v244.03l-7.58 8.13v18.49h634.51v-14.71H846.5v14.71H1481v-18.49l-7.58-8.13V332.82H24.12Zm507.32 18.29h19.26v19.26h-19.26v-19.26Zm-193.14 0h19.25v19.26H338.3v-19.26Zm-195.62 0h19.26v19.26h-19.26v-19.26Zm57.17 201.42h-92.86v-71.18c0-25.65 20.79-46.43 46.43-46.43s46.43 20.79 46.43 46.43v71.18Zm-46.7-135.63c-37.52 0-50.48 31.12-50.48 31.12 0-35.28 38.53-53.32 49.94-53.32 11.42 0 49.34 18.55 49.34 54.03 0-.01-11.29-31.83-48.8-31.83Zm240.91 135.63h-92.88v-71.18c0-25.65 20.8-46.43 46.44-46.43 25.65 0 46.43 20.79 46.43 46.43v71.18h.01Zm-45.6-135.63c-37.51 0-50.47 31.12-50.47 31.12 0-35.28 38.52-53.32 49.94-53.32 11.41 0 49.34 18.55 49.34 54.03-.01-.01-11.31-31.83-48.81-31.83ZM587.2 552.53h-92.87v-71.18c0-25.65 20.79-46.43 46.43-46.43 25.65 0 46.43 20.79 46.43 46.43v71.18h.01ZM541.61 416.9c-37.52 0-50.48 31.12-50.48 31.12 0-35.28 38.53-53.32 49.94-53.32 11.42 0 49.34 18.55 49.34 54.03 0-.01-11.3-31.83-48.8-31.83Zm197.85-65.79h18.61v19.26h-18.61v-19.26Zm55.94 223.37h-93.27v-93.13c0-25.65 20.79-46.43 46.44-46.43h.38c25.66 0 46.44 20.79 46.44 46.43v93.13h.01Zm-46.51-157.56h-.24c-36.92.42-49.72 31.1-49.72 31.1 0-35.07 38.05-53.07 49.72-53.3l.24-1c11.67.23 49.72 19.23 49.72 54.31 0-.02-12.81-30.69-49.72-31.11Zm586.7-65.81h19.27v19.26h-19.27v-19.26Zm-195.61 0h19.25v19.26h-19.25v-19.26Zm-193.15 0h19.26v19.26h-19.26v-19.26Zm56.37 201.42h-92.87v-71.18c0-25.65 20.79-46.43 46.43-46.43 25.65 0 46.43 20.79 46.43 46.43v71.18h.01ZM955.93 416.9c-37.5 0-48.8 31.83-48.8 31.83 0-35.47 37.92-54.03 49.34-54.03 11.41 0 49.94 18.03 49.94 53.32 0-.01-12.97-31.12-50.48-31.12Zm240.42 135.63h-92.88v-71.18c0-25.65 20.79-46.43 46.43-46.43 25.65 0 46.44 20.79 46.44 46.43v71.18h.01Zm-47.27-135.63c-37.51 0-48.81 31.83-48.81 31.83 0-35.47 37.93-54.03 49.34-54.03 11.42 0 49.94 18.03 49.94 53.32 0-.01-12.96-31.12-50.47-31.12Zm241.47 135.63h-92.86v-71.18c0-25.65 20.8-46.43 46.43-46.43 25.65 0 46.43 20.79 46.43 46.43v71.18Zm-46.16-135.63c-37.51 0-48.8 31.83-48.8 31.83 0-35.47 37.92-54.03 49.34-54.03 11.41 0 49.94 18.03 49.94 53.32 0-.01-12.97-31.12-50.48-31.12ZM672.49 607.38v17.34c.06 2.3.06 4.56 0 6.86v15.6h14.61c-2.34-13.69-2.34-26.1 0-39.79h-14.61v-.01ZM705.82 607.38c2.34 13.69 2.34 26.11 0 39.79h16.07c-2.33-13.69-2.33-26.1 0-39.79h-16.07ZM636.42 1063.14c-12.64-10.6-31.13-15.75-56.55-15.75h-44.2v-7.44c0-21.21 1.84-34.95 1.92-35.53l.21-1.43h-37.17l.12 1.36c.01.18 1.55 17.89 1.55 35.6v154.2c0 11.24-1.51 27.5-1.82 30.64l-.15 1.48h37.69l-.16-1.39c-.02-.19-2.2-19.15-2.2-30.57v-14.53h43.4c48.49 0 76.3-25.04 76.3-68.71 0-10.57-1.57-19.94-4.67-27.84-3.13-8.02-7.94-14.78-14.27-20.09Zm-21.81 75.27c-6.48 7.93-18.02 11.78-35.27 11.78h-43.67v-73.11h43.67c14.42 0 25.24 2.85 32.16 8.48 6.87 5.59 10.21 13.94 10.21 25.54 0 8.67-.81 19.62-7.1 27.31ZM765.36 1039.1c0-17.61 1.97-34.25 1.99-34.42l.16-1.39h-37.7l.16 1.38c.02.18 1.95 18.45 1.95 34.37 0 8.28.01 43.67.02 78.39l.01 36.7c.01 18.09.01 32.33.01 36.89 0 14.78-2.12 35.26-2.12 35.26h37.68s-2.16-20.07-2.16-35.3l.01-71.59c-.01-34.89-.01-71.03-.01-80.29ZM1054.2 1003.29h-38.28s2.36 20.23 2.36 36.36v129.15l-107.46-165.45h-34.48s1.88 19.66 1.88 36.91v150.83c0 16.49-2.4 35.19-2.4 35.19h38.32s-2.55-19.09-2.55-35.19v-131.45l107.45 166.61h34.07s-1.46-21.43-1.46-38.96v-147.33c-.01-16.76 2.55-36.67 2.55-36.67ZM1201.82 1050.15c17.35-15.75 39.07-19.05 54.24-19.05 37.5 0 61.46 25.25 61.7 25.51l.97 1.03 18.99-23.12-.75-.82c-.33-.34-8.13-8.45-22.06-16.33-13.12-7.42-34.65-16.27-62.66-16.27-29.59 0-56.7 10.04-76.33 28.27-21.73 20.18-33.22 49.1-33.22 83.65 0 36.96 10.74 67.17 31.05 87.36 18.6 18.5 44.48 28.28 74.83 28.28 57.64 0 87.05-24.6 87.34-24.85l.43-.37v-.57c0-.28.09-60.57.09-69.57 0-11.13.96-24.72 1.07-26.27l.1-1.34-84.69-.36h-1.64l-.1 28.44-.01 1.39 1.38-.14c.17-.02 16.9-1.67 28.63-1.67l22.59.12-.05 53.47c-1.55.97-6.17 3.62-13.97 6.21-11.55 3.84-24.61 5.78-38.81 5.78-17.65 0-35.4-7.39-48.69-20.28-11.21-10.86-24.57-30.94-24.57-64.88-.01-27.68 8.12-49.08 24.14-63.62ZM384.1 1196.19h-56.08c-.02-12.73-.18-142.86-.18-156.24 0-19.13 2.02-35.38 2.05-35.55l.17-1.4h-37.7l.13 1.38c.07.73 1.78 17.96 1.78 35.57 0 14.93.37 183.02.37 184.65l.01 1.65 134.89-.15h1.18l1.86-32.45-1.46.15c-.22.01-24.62 2.39-47.02 2.39ZM203.96 1190.61c-4.14-9.9-70.38-183.99-71.05-185.76l-.6-1.48h-37l-.33.8c-.66 1.71-67.7 175.35-72.51 186.42-4.75 10.94-15.16 33.37-15.43 33.95l-1.11 1.87 42.87.03.25-.89c0-.01.03-.13.09-.34 1.35-5.23 4.83-18.29 7.88-26.64.93-2.55 5.03-13.75 10.65-29.07h90.66l10.49 29.57c3.86 10.4 7.06 23.75 7.69 26.42l.23.96 43.49-.04-1.01-1.78c-.1-.19-8.74-18.44-15.26-34.02Zm-125.09-51.67c13.93-37.99 30.11-82.1 34.56-94.23l33.9 94.23H78.87ZM1466.52 1039.1c0-17.61 2.14-35.82 2.14-35.82h-37.68s2.09 19.84 2.09 35.75c0 8.28.01 43.67.02 78.39v7.27c.01 30.78.02 59.47.02 66.32 0 14.07-2.13 35.26-2.13 35.26h37.68s-2.16-20.6-2.16-35.3l.01-71.59c0-34.88.01-71.02.01-80.28Z" fill="#174C97"/><path d="M1139.98 111.73h-119.75v16.35h-75.34v-16.35H754.43V56.3h89.41l-25.9-29.58L843.84.38H743.13v111.35H552.64v16.35H477.3v-16.35H358.27L.36 294v18.45h1496.82V294l-357.2-182.27ZM848.79 292.87l-72.6.01v.01h-54.84v-.01l-72.6-.01v-21.83s36.21-6.74 47.46-35.85c-11.64-9.65-8.75-32.85 8.39-32.91 2.39-.01 3.76-.02 4.5-.03 2.7-11.53 11.54-15.13 20.19-17.27l-10.2-26.88 7.37-9.66h44.62l7.37 9.66-10.2 26.88c8.65 2.14 17.48 5.74 20.19 17.27.74.01 2.1.02 4.5.03 17.13.06 20.03 23.26 8.38 32.91 11.25 29.11 47.46 35.85 47.46 35.85v21.83h.01Z" fill="#174C97"/><path d="M536.38 56.87H493.5v54.94h42.88V56.87ZM1004.04 56.87h-42.88v54.94h42.88V56.87Z" fill="#174C97"/></svg>